# xmcd
#
# Track frame offsets:
#	150
#	16388
#	34236
#	53150
#	69525
#	87748
#	105261
#	116444
#	125661
#	140934
#
# Disc length: 2187 seconds
#
# Revision: 0
# Processed by: cddbd v1.5.2PL0 Copyright (c) Steve Scherf et al.
# Submitted via: dBpowerAMP V4.0
#
DISCID=8f08890a
DTITLE=RIT - "Western Hip-Hop"
DYEAR=2013
DGENRE=Rap
TTITLE0=Western and hip-hop
TTITLE1=Mon nom est personne
TTITLE2=Le beat la bass
TTITLE3=Toujours dans la ronde
TTITLE4=Chien de garde
TTITLE5=T'aurais voulu feat. 1978
TTITLE6=A qui profite le crime?
TTITLE7=Il était une fois la révolution
TTITLE8=Café clope
TTITLE9=Rit vs Riton (la battle) Feat Riton
EXTD=
EXTT0=
EXTT1=
EXTT2=
EXTT3=
EXTT4=
EXTT5=
EXTT6=
EXTT7=
EXTT8=
EXTT9=
PLAYORDER=
